<?xml version="1.0" encoding="UTF-8"?>
<svg xmlns="http://www.w3.org/2000/svg" xmlns:xlink="http://www.w3.org/1999/xlink" width="32px" height="32px" viewBox="0 0 32 32" version="1.1">
<g id="surface1">
<path style="fill:none;stroke-width:32;stroke-linecap:round;stroke-linejoin:miter;stroke:rgb(0%,0%,0%);stroke-opacity:1;stroke-miterlimit:10;" d="M 448 225.625 L 448 324.625 C 448 350.8125 432.0625 374.3125 407.75 384.0625 L 384.0625 393.5 C 374.0625 397.5625 366.6875 406.375 364.625 417 L 354.625 467.125 C 353.125 474.625 346.5 480 338.875 480 L 173.125 480 C 165.5 480 158.9375 474.625 157.4375 467.125 L 147.375 417 C 145.3125 406.375 137.9375 397.5625 127.9375 393.5625 L 104.25 384.0625 C 79.9375 374.375 64 350.8125 64 324.6875 L 64 224 C 64 118.0625 149.75 32.1875 255.625 32 C 361.5 31.8125 448 119.875 448 225.625 Z M 448 225.625 " transform="matrix(0.0625,0,0,0.0625,0,0)"/>
<path style="fill:none;stroke-width:32;stroke-linecap:round;stroke-linejoin:miter;stroke:rgb(0%,0%,0%);stroke-opacity:1;stroke-miterlimit:10;" d="M 208 280 C 208 257.9375 190.0625 240 168 240 C 145.9375 240 128 257.9375 128 280 C 128 302.0625 145.9375 320 168 320 C 190.0625 320 208 302.0625 208 280 Z M 208 280 " transform="matrix(0.0625,0,0,0.0625,0,0)"/>
<path style="fill:none;stroke-width:32;stroke-linecap:round;stroke-linejoin:miter;stroke:rgb(0%,0%,0%);stroke-opacity:1;stroke-miterlimit:10;" d="M 384 280 C 384 257.9375 366.0625 240 344 240 C 321.9375 240 304 257.9375 304 280 C 304 302.0625 321.9375 320 344 320 C 366.0625 320 384 302.0625 384 280 Z M 384 280 " transform="matrix(0.0625,0,0,0.0625,0,0)"/>
<path style="fill:none;stroke-width:32;stroke-linecap:round;stroke-linejoin:round;stroke:rgb(0%,0%,0%);stroke-opacity:1;stroke-miterlimit:4;" d="M 256 336 L 240 384 L 272 384 Z M 256 448 L 256 480 M 208 448 L 208 480 M 304 448 L 304 480 " transform="matrix(0.0625,0,0,0.0625,0,0)"/>
</g>
</svg>
